<svg width="726" height="495" viewBox="0 0 726 495" fill="none" xmlns="http://www.w3.org/2000/svg">
<g clip-path="url(#clip0_1210_258)">
<line x1="0.226549" y1="130.554" x2="726.227" y2="499.554" stroke="#64656D" stroke-dasharray="8 8"/>
<line x1="1.76336" y1="285.62" x2="401.705" y2="497.496" stroke="#64656D" stroke-dasharray="8 8"/>
<line x1="0.230527" y1="202.556" x2="562.231" y2="494.556" stroke="#B7B8BB" stroke-dasharray="8 8"/>
<rect x="160" y="191" width="56" height="56" rx="4" fill="#A3C4E2"/>
<rect x="71" y="232" width="56" height="56" rx="4" fill="#A3C4E2"/>
<rect x="71" y="232" width="56" height="56" rx="4" fill="#A3C4E2"/>
<rect x="115" y="323" width="56" height="56" rx="4" fill="#A3C4E2"/>
<rect x="271" y="405" width="56" height="56" rx="4" fill="#4EAEF9"/>
<rect x="238" y="305" width="56" height="56" rx="4" fill="#A3C4E2"/>
<rect x="415" y="397" width="56" height="56" rx="4" fill="#A3C4E2"/>
<rect x="373" y="290" width="56" height="56" rx="4" fill="#171925"/>
<rect x="564" y="392" width="56" height="56" rx="4" fill="#A3C4E2"/>
<g filter="url(#filter0_d_1210_258)">
<rect x="165" y="196" width="56" height="56" rx="4" fill="white"/>
<rect x="165.2" y="196.2" width="55.6" height="55.6" rx="3.8" stroke="#171925" stroke-width="0.4"/>
</g>
<rect x="76.2" y="237.2" width="55.6" height="55.6" rx="3.8" fill="white" stroke="#171925" stroke-width="0.4"/>
<rect x="76.2" y="237.2" width="55.6" height="55.6" rx="3.8" fill="url(#paint0_linear_1210_258)" stroke="#171925" stroke-width="0.4"/>
<g filter="url(#filter1_d_1210_258)">
<rect x="120" y="328" width="56" height="56" rx="4" fill="white"/>
<rect x="120.2" y="328.2" width="55.6" height="55.6" rx="3.8" stroke="#171925" stroke-width="0.4"/>
</g>
<rect x="276.2" y="410.2" width="55.6" height="55.6" rx="3.8" fill="url(#paint1_linear_1210_258)" stroke="#171925" stroke-width="0.4"/>
<g filter="url(#filter2_d_1210_258)">
<rect x="243" y="310" width="56" height="56" rx="4" fill="white"/>
<rect x="243.2" y="310.2" width="55.6" height="55.6" rx="3.8" stroke="#171925" stroke-width="0.4"/>
</g>
<g filter="url(#filter3_d_1210_258)">
<rect x="420" y="402" width="56" height="56" rx="4" fill="white"/>
<rect x="420.2" y="402.2" width="55.6" height="55.6" rx="3.8" stroke="#171925" stroke-width="0.4"/>
</g>
<rect x="378.2" y="295.2" width="55.6" height="55.6" rx="3.8" fill="url(#paint2_linear_1210_258)" stroke="#171925" stroke-width="0.4"/>
<g filter="url(#filter4_d_1210_258)">
<rect x="569" y="397" width="56" height="56" rx="4" fill="white"/>
<rect x="569.2" y="397.2" width="55.6" height="55.6" rx="3.8" stroke="#171925" stroke-width="0.4"/>
</g>
<path d="M183.967 230L189.055 215.908H190.832V218.35H190.178L186.271 230H183.967ZM186.428 226.191L187.043 224.434H193.449L194.064 226.191H186.428ZM194.221 230L190.314 218.35V215.908H191.428L196.525 230H194.221ZM198.762 230V215.908H200.959V230H198.762Z" fill="url(#paint3_linear_1210_258)"/>
<path d="M253.215 342V332.537H254.684V342H253.215ZM256.894 342V334.878H258.317V335.953H258.428C258.603 335.573 258.861 335.276 259.202 335.062C259.543 334.847 259.974 334.74 260.494 334.74C261.294 334.74 261.906 334.97 262.33 335.429C262.754 335.888 262.966 336.541 262.966 337.39V342H261.537V337.724C261.537 337.13 261.412 336.688 261.163 336.399C260.918 336.106 260.533 335.96 260.009 335.96C259.663 335.96 259.364 336.037 259.11 336.19C258.857 336.338 258.66 336.552 258.52 336.832C258.384 337.108 258.317 337.438 258.317 337.823V342H256.894ZM267.636 342.046C266.857 342.046 266.293 341.897 265.944 341.6C265.598 341.298 265.426 340.806 265.426 340.124V335.999H264.311V334.878H265.426V333.081H266.882V334.878H268.41V335.999H266.882V339.777C266.882 340.162 266.958 340.439 267.111 340.61C267.264 340.776 267.518 340.859 267.872 340.859C267.977 340.859 268.066 340.857 268.141 340.852C268.219 340.848 268.309 340.841 268.41 340.833V341.974C268.296 341.991 268.173 342.007 268.042 342.02C267.911 342.037 267.776 342.046 267.636 342.046ZM272.987 342.138C272.292 342.138 271.695 341.989 271.197 341.692C270.698 341.39 270.314 340.964 270.043 340.413C269.776 339.862 269.642 339.211 269.642 338.459V338.452C269.642 337.709 269.776 337.06 270.043 336.504C270.314 335.949 270.694 335.516 271.184 335.206C271.678 334.895 272.255 334.74 272.915 334.74C273.58 334.74 274.15 334.889 274.627 335.186C275.108 335.483 275.477 335.901 275.735 336.439C275.993 336.972 276.122 337.597 276.122 338.314V338.813H270.364V337.796H275.414L274.732 338.741V338.17C274.732 337.663 274.653 337.243 274.495 336.911C274.342 336.574 274.13 336.323 273.859 336.157C273.588 335.991 273.276 335.908 272.922 335.908C272.567 335.908 272.25 335.995 271.971 336.17C271.695 336.34 271.477 336.594 271.315 336.931C271.157 337.267 271.079 337.68 271.079 338.17V338.741C271.079 339.208 271.157 339.608 271.315 339.941C271.472 340.273 271.695 340.527 271.984 340.702C272.277 340.876 272.622 340.964 273.02 340.964C273.326 340.964 273.588 340.922 273.807 340.839C274.03 340.752 274.211 340.645 274.351 340.518C274.495 340.391 274.594 340.266 274.646 340.144L274.673 340.092H276.05L276.037 340.151C275.975 340.387 275.868 340.623 275.715 340.859C275.562 341.091 275.359 341.303 275.105 341.495C274.856 341.687 274.554 341.843 274.2 341.961C273.851 342.079 273.446 342.138 272.987 342.138ZM277.814 342V334.878H279.237V335.953H279.348C279.523 335.573 279.781 335.276 280.122 335.062C280.463 334.847 280.894 334.74 281.414 334.74C282.214 334.74 282.826 334.97 283.25 335.429C283.675 335.888 283.887 336.541 283.887 337.39V342H282.457V337.724C282.457 337.13 282.332 336.688 282.083 336.399C281.838 336.106 281.454 335.96 280.929 335.96C280.584 335.96 280.284 336.037 280.03 336.19C279.777 336.338 279.58 336.552 279.44 336.832C279.305 337.108 279.237 337.438 279.237 337.823V342H277.814ZM288.556 342.046C287.778 342.046 287.214 341.897 286.864 341.6C286.519 341.298 286.346 340.806 286.346 340.124V335.999H285.231V334.878H286.346V333.081H287.802V334.878H289.33V335.999H287.802V339.777C287.802 340.162 287.878 340.439 288.031 340.61C288.184 340.776 288.438 340.859 288.792 340.859C288.897 340.859 288.987 340.857 289.061 340.852C289.14 340.848 289.229 340.841 289.33 340.833V341.974C289.216 341.991 289.094 342.007 288.963 342.02C288.831 342.037 288.696 342.046 288.556 342.046Z" fill="url(#paint4_linear_1210_258)"/>
<path d="M288.875 442L292.292 432.537H293.479V434.196H293.033L290.423 442H288.875ZM290.522 439.442L290.935 438.262H295.243L295.657 439.442H290.522ZM295.748 442L293.145 434.196V432.537H293.886L297.296 442H295.748ZM300.798 442.138C300.265 442.138 299.814 442.035 299.447 441.829C299.084 441.62 298.811 441.318 298.627 440.924C298.448 440.527 298.358 440.048 298.358 439.488V434.878H299.782V439.154C299.782 439.74 299.897 440.179 300.129 440.472C300.361 440.765 300.739 440.911 301.264 440.911C301.544 440.911 301.793 440.87 302.011 440.787C302.23 440.699 302.414 440.575 302.562 440.413C302.711 440.251 302.82 440.057 302.89 439.829C302.964 439.602 303.002 439.344 303.002 439.055V434.878H304.431V442H303.002V440.924H302.897C302.783 441.178 302.628 441.397 302.431 441.58C302.234 441.76 301.998 441.897 301.723 441.993C301.452 442.09 301.143 442.138 300.798 442.138ZM309.166 442.046C308.388 442.046 307.824 441.897 307.474 441.6C307.129 441.298 306.956 440.806 306.956 440.124V435.999H305.841V434.878H306.956V433.081H308.412V434.878H309.94V435.999H308.412V439.777C308.412 440.162 308.489 440.439 308.642 440.61C308.795 440.776 309.048 440.859 309.402 440.859C309.507 440.859 309.597 440.857 309.671 440.852C309.75 440.848 309.839 440.841 309.94 440.833V441.974C309.826 441.991 309.704 442.007 309.573 442.02C309.442 442.037 309.306 442.046 309.166 442.046ZM314.544 442.138C313.849 442.138 313.247 441.989 312.74 441.692C312.238 441.394 311.851 440.97 311.58 440.42C311.308 439.864 311.173 439.206 311.173 438.446V438.432C311.173 437.667 311.308 437.009 311.58 436.458C311.855 435.908 312.244 435.483 312.747 435.186C313.254 434.889 313.853 434.74 314.544 434.74C315.239 434.74 315.838 434.889 316.341 435.186C316.843 435.479 317.23 435.903 317.501 436.458C317.777 437.009 317.915 437.667 317.915 438.432V438.446C317.915 439.206 317.777 439.864 317.501 440.42C317.23 440.97 316.843 441.394 316.341 441.692C315.842 441.989 315.243 442.138 314.544 442.138ZM314.544 440.944C314.95 440.944 315.296 440.846 315.58 440.649C315.864 440.448 316.081 440.162 316.229 439.79C316.378 439.418 316.452 438.97 316.452 438.446V438.432C316.452 437.903 316.378 437.453 316.229 437.081C316.081 436.71 315.864 436.426 315.58 436.229C315.296 436.028 314.95 435.927 314.544 435.927C314.137 435.927 313.792 436.028 313.508 436.229C313.223 436.426 313.005 436.71 312.852 437.081C312.703 437.453 312.629 437.903 312.629 438.432V438.446C312.629 438.97 312.703 439.418 312.852 439.79C313.005 440.162 313.223 440.448 313.508 440.649C313.792 440.846 314.137 440.944 314.544 440.944Z" fill="url(#paint5_linear_1210_258)"/>
<path d="M439.356 434V424.537H441.055L444.065 432.078H444.177L447.187 424.537H448.885V434H447.541V427.062H446.813L448.348 424.799L444.662 434H443.573L439.894 424.799L441.422 427.062H440.701V434H439.356ZM451.253 434V424.537H452.722V432.728H457.162V434H451.253Z" fill="url(#paint6_linear_1210_258)"/>
<path d="M133.61 361V351.537H137.027C137.967 351.537 138.769 351.723 139.434 352.094C140.098 352.466 140.605 353.001 140.955 353.701C141.309 354.4 141.486 355.246 141.486 356.239V356.252C141.486 357.253 141.309 358.108 140.955 358.816C140.605 359.524 140.098 360.067 139.434 360.443C138.773 360.814 137.971 361 137.027 361H133.61ZM135.079 359.728H136.863C137.523 359.728 138.085 359.592 138.548 359.321C139.016 359.05 139.37 358.657 139.611 358.141C139.855 357.625 139.978 357.002 139.978 356.272V356.259C139.978 355.533 139.853 354.912 139.604 354.396C139.359 353.88 139.005 353.487 138.542 353.216C138.078 352.944 137.519 352.809 136.863 352.809H135.079V359.728ZM145.237 361.118C144.787 361.118 144.383 361.033 144.024 360.862C143.67 360.687 143.39 360.44 143.185 360.121C142.979 359.802 142.877 359.428 142.877 359V358.987C142.877 358.558 142.979 358.193 143.185 357.891C143.395 357.59 143.696 357.354 144.09 357.183C144.488 357.008 144.969 356.903 145.533 356.868L148.162 356.711V357.714L145.729 357.872C145.24 357.902 144.879 358.007 144.647 358.187C144.416 358.361 144.3 358.608 144.3 358.928V358.941C144.3 359.264 144.424 359.52 144.673 359.708C144.923 359.892 145.237 359.983 145.618 359.983C145.972 359.983 146.287 359.914 146.562 359.774C146.842 359.629 147.061 359.437 147.218 359.197C147.375 358.952 147.454 358.676 147.454 358.37V356.127C147.454 355.734 147.332 355.434 147.087 355.229C146.846 355.019 146.488 354.914 146.011 354.914C145.613 354.914 145.288 354.984 145.034 355.124C144.785 355.264 144.619 355.461 144.536 355.714L144.523 355.734H143.152L143.159 355.688C143.215 355.294 143.371 354.953 143.624 354.665C143.882 354.372 144.219 354.145 144.634 353.983C145.054 353.821 145.533 353.74 146.07 353.74C146.669 353.74 147.176 353.836 147.592 354.029C148.012 354.217 148.329 354.49 148.543 354.849C148.761 355.203 148.871 355.629 148.871 356.127V361H147.454V359.99H147.349C147.209 360.231 147.034 360.436 146.825 360.607C146.615 360.773 146.376 360.899 146.11 360.987C145.843 361.074 145.552 361.118 145.237 361.118ZM153.566 361.046C152.788 361.046 152.224 360.897 151.874 360.6C151.529 360.298 151.356 359.806 151.356 359.124V354.999H150.241V353.878H151.356V352.081H152.812V353.878H154.34V354.999H152.812V358.777C152.812 359.162 152.889 359.439 153.042 359.61C153.195 359.776 153.448 359.859 153.802 359.859C153.907 359.859 153.997 359.857 154.071 359.852C154.15 359.848 154.24 359.841 154.34 359.833V360.974C154.226 360.991 154.104 361.007 153.973 361.02C153.842 361.037 153.706 361.046 153.566 361.046ZM157.96 361.118C157.51 361.118 157.105 361.033 156.747 360.862C156.393 360.687 156.113 360.44 155.907 360.121C155.702 359.802 155.599 359.428 155.599 359V358.987C155.599 358.558 155.702 358.193 155.907 357.891C156.117 357.59 156.419 357.354 156.812 357.183C157.21 357.008 157.691 356.903 158.255 356.868L160.885 356.711V357.714L158.452 357.872C157.962 357.902 157.602 358.007 157.37 358.187C157.138 358.361 157.022 358.608 157.022 358.928V358.941C157.022 359.264 157.147 359.52 157.396 359.708C157.645 359.892 157.96 359.983 158.34 359.983C158.695 359.983 159.009 359.914 159.285 359.774C159.565 359.629 159.783 359.437 159.941 359.197C160.098 358.952 160.177 358.676 160.177 358.37V356.127C160.177 355.734 160.054 355.434 159.81 355.229C159.569 355.019 159.211 354.914 158.734 354.914C158.336 354.914 158.01 354.984 157.757 355.124C157.508 355.264 157.341 355.461 157.258 355.714L157.245 355.734H155.875L155.881 355.688C155.938 355.294 156.093 354.953 156.347 354.665C156.605 354.372 156.941 354.145 157.357 353.983C157.777 353.821 158.255 353.74 158.793 353.74C159.392 353.74 159.899 353.836 160.314 354.029C160.734 354.217 161.051 354.49 161.265 354.849C161.484 355.203 161.593 355.629 161.593 356.127V361H160.177V359.99H160.072C159.932 360.231 159.757 360.436 159.547 360.607C159.337 360.773 159.099 360.899 158.832 360.987C158.566 361.074 158.275 361.118 157.96 361.118Z" fill="url(#paint7_linear_1210_258)"/>
<path d="M406 323L406 270.212L406 256" stroke="#64656D" stroke-width="0.4" stroke-dasharray="8 8"/>
<circle cx="99" cy="165" r="6" fill="#387EC1"/>
<path d="M89 182C89 180.687 89.2587 179.386 89.7612 178.173C90.2638 176.96 91.0003 175.858 91.9289 174.929C92.8575 174 93.9599 173.264 95.1732 172.761C96.3864 172.259 97.6868 172 99 172C100.313 172 101.614 172.259 102.827 172.761C104.04 173.264 105.142 174 106.071 174.929C107 175.858 107.736 176.96 108.239 178.173C108.741 179.386 109 180.687 109 182L99 182L89 182Z" fill="#387EC1"/>
<path d="M408.667 229.467L406 232" stroke="black" stroke-width="2.66667" stroke-linecap="round" stroke-linejoin="round"/>
<path d="M396.8 234.667L392.934 233.6" stroke="black" stroke-width="2.66667" stroke-linecap="round" stroke-linejoin="round"/>
<path d="M398 240L395.467 242.667" stroke="black" stroke-width="2.66667" stroke-linecap="round" stroke-linejoin="round"/>
<path d="M399.6 226.933L400.666 230.8" stroke="black" stroke-width="2.66667" stroke-linecap="round" stroke-linejoin="round"/>
<path d="M402.049 236.92C401.997 236.798 401.983 236.664 402.008 236.534C402.034 236.404 402.097 236.285 402.191 236.191C402.284 236.097 402.404 236.034 402.533 236.009C402.663 235.984 402.798 235.998 402.92 236.049L417.586 242.049C417.717 242.103 417.827 242.196 417.901 242.317C417.975 242.437 418.009 242.577 417.998 242.718C417.987 242.859 417.932 242.992 417.84 243.099C417.748 243.207 417.625 243.282 417.488 243.315L411.689 244.703C411.45 244.76 411.231 244.882 411.056 245.056C410.882 245.23 410.76 245.449 410.702 245.688L409.316 251.488C409.283 251.626 409.208 251.75 409.101 251.842C408.993 251.934 408.859 251.989 408.718 252C408.577 252.011 408.436 251.977 408.316 251.903C408.196 251.828 408.102 251.718 408.049 251.587L402.049 236.92Z" fill="black" stroke="black" stroke-width="2.66667" stroke-linecap="round" stroke-linejoin="round"/>
<path d="M99 250L99 197.212L99 183" stroke="#64656D" stroke-width="0.4" stroke-dasharray="8 8"/>
<path d="M597 432.333V434.166" stroke="#171925" stroke-width="1.14583" stroke-linecap="round" stroke-linejoin="round"/>
<path d="M597 415.833V417.667" stroke="#171925" stroke-width="1.14583" stroke-linecap="round" stroke-linejoin="round"/>
<path d="M601.582 432.333V434.166" stroke="#171925" stroke-width="1.14583" stroke-linecap="round" stroke-linejoin="round"/>
<path d="M601.583 415.833V417.667" stroke="#171925" stroke-width="1.14583" stroke-linecap="round" stroke-linejoin="round"/>
<path d="M587.833 425H589.666" stroke="#171925" stroke-width="1.14583" stroke-linecap="round" stroke-linejoin="round"/>
<path d="M587.833 429.583H589.666" stroke="#171925" stroke-width="1.14583" stroke-linecap="round" stroke-linejoin="round"/>
<path d="M587.833 420.417H589.666" stroke="#171925" stroke-width="1.14583" stroke-linecap="round" stroke-linejoin="round"/>
<path d="M604.333 425H606.166" stroke="#171925" stroke-width="1.14583" stroke-linecap="round" stroke-linejoin="round"/>
<path d="M604.333 429.583H606.166" stroke="#171925" stroke-width="1.14583" stroke-linecap="round" stroke-linejoin="round"/>
<path d="M604.333 420.417H606.166" stroke="#171925" stroke-width="1.14583" stroke-linecap="round" stroke-linejoin="round"/>
<path d="M592.418 432.333V434.167" stroke="#171925" stroke-width="1.14583" stroke-linecap="round" stroke-linejoin="round"/>
<path d="M592.417 415.833V417.667" stroke="#171925" stroke-width="1.14583" stroke-linecap="round" stroke-linejoin="round"/>
<path d="M602.5 417.667H591.5C590.488 417.667 589.667 418.488 589.667 419.5V430.5C589.667 431.513 590.488 432.333 591.5 432.333H602.5C603.513 432.333 604.334 431.513 604.334 430.5V419.5C604.334 418.488 603.513 417.667 602.5 417.667Z" stroke="#171925" stroke-width="1.14583" stroke-linecap="round" stroke-linejoin="round"/>
<path d="M599.749 421.333H594.249C593.742 421.333 593.332 421.743 593.332 422.25V427.75C593.332 428.256 593.742 428.666 594.249 428.666H599.749C600.255 428.666 600.665 428.256 600.665 427.75V422.25C600.665 421.743 600.255 421.333 599.749 421.333Z" stroke="#171925" stroke-width="1.14583" stroke-linecap="round" stroke-linejoin="round"/>
<path d="M599.749 421.333H594.249C593.742 421.333 593.332 421.743 593.332 422.25V427.75C593.332 428.256 593.742 428.666 594.249 428.666H599.749C600.255 428.666 600.665 428.256 600.665 427.75V422.25C600.665 421.743 600.255 421.333 599.749 421.333Z" stroke="#171925" stroke-width="1.14583" stroke-linecap="round" stroke-linejoin="round"/>
</g>
<rect x="0.2" y="0.2" width="725.6" height="494.6" rx="7.8" stroke="#C6CAD1" stroke-width="0.4"/>
<defs>
<filter id="filter0_d_1210_258" x="161" y="196" width="64" height="64" filterUnits="userSpaceOnUse" color-interpolation-filters="sRGB">
<feFlood flood-opacity="0" result="BackgroundImageFix"/>
<feColorMatrix in="SourceAlpha" type="matrix" values="0 0 0 0 0 0 0 0 0 0 0 0 0 0 0 0 0 0 127 0" result="hardAlpha"/>
<feOffset dy="4"/>
<feGaussianBlur stdDeviation="2"/>
<feComposite in2="hardAlpha" operator="out"/>
<feColorMatrix type="matrix" values="0 0 0 0 0 0 0 0 0 0 0 0 0 0 0 0 0 0 0.1 0"/>
<feBlend mode="normal" in2="BackgroundImageFix" result="effect1_dropShadow_1210_258"/>
<feBlend mode="normal" in="SourceGraphic" in2="effect1_dropShadow_1210_258" result="shape"/>
</filter>
<filter id="filter1_d_1210_258" x="116" y="328" width="64" height="64" filterUnits="userSpaceOnUse" color-interpolation-filters="sRGB">
<feFlood flood-opacity="0" result="BackgroundImageFix"/>
<feColorMatrix in="SourceAlpha" type="matrix" values="0 0 0 0 0 0 0 0 0 0 0 0 0 0 0 0 0 0 127 0" result="hardAlpha"/>
<feOffset dy="4"/>
<feGaussianBlur stdDeviation="2"/>
<feComposite in2="hardAlpha" operator="out"/>
<feColorMatrix type="matrix" values="0 0 0 0 0 0 0 0 0 0 0 0 0 0 0 0 0 0 0.1 0"/>
<feBlend mode="normal" in2="BackgroundImageFix" result="effect1_dropShadow_1210_258"/>
<feBlend mode="normal" in="SourceGraphic" in2="effect1_dropShadow_1210_258" result="shape"/>
</filter>
<filter id="filter2_d_1210_258" x="239" y="310" width="64" height="64" filterUnits="userSpaceOnUse" color-interpolation-filters="sRGB">
<feFlood flood-opacity="0" result="BackgroundImageFix"/>
<feColorMatrix in="SourceAlpha" type="matrix" values="0 0 0 0 0 0 0 0 0 0 0 0 0 0 0 0 0 0 127 0" result="hardAlpha"/>
<feOffset dy="4"/>
<feGaussianBlur stdDeviation="2"/>
<feComposite in2="hardAlpha" operator="out"/>
<feColorMatrix type="matrix" values="0 0 0 0 0 0 0 0 0 0 0 0 0 0 0 0 0 0 0.1 0"/>
<feBlend mode="normal" in2="BackgroundImageFix" result="effect1_dropShadow_1210_258"/>
<feBlend mode="normal" in="SourceGraphic" in2="effect1_dropShadow_1210_258" result="shape"/>
</filter>
<filter id="filter3_d_1210_258" x="416" y="402" width="64" height="64" filterUnits="userSpaceOnUse" color-interpolation-filters="sRGB">
<feFlood flood-opacity="0" result="BackgroundImageFix"/>
<feColorMatrix in="SourceAlpha" type="matrix" values="0 0 0 0 0 0 0 0 0 0 0 0 0 0 0 0 0 0 127 0" result="hardAlpha"/>
<feOffset dy="4"/>
<feGaussianBlur stdDeviation="2"/>
<feComposite in2="hardAlpha" operator="out"/>
<feColorMatrix type="matrix" values="0 0 0 0 0 0 0 0 0 0 0 0 0 0 0 0 0 0 0.1 0"/>
<feBlend mode="normal" in2="BackgroundImageFix" result="effect1_dropShadow_1210_258"/>
<feBlend mode="normal" in="SourceGraphic" in2="effect1_dropShadow_1210_258" result="shape"/>
</filter>
<filter id="filter4_d_1210_258" x="565" y="397" width="64" height="64" filterUnits="userSpaceOnUse" color-interpolation-filters="sRGB">
<feFlood flood-opacity="0" result="BackgroundImageFix"/>
<feColorMatrix in="SourceAlpha" type="matrix" values="0 0 0 0 0 0 0 0 0 0 0 0 0 0 0 0 0 0 127 0" result="hardAlpha"/>
<feOffset dy="4"/>
<feGaussianBlur stdDeviation="2"/>
<feComposite in2="hardAlpha" operator="out"/>
<feColorMatrix type="matrix" values="0 0 0 0 0 0 0 0 0 0 0 0 0 0 0 0 0 0 0.1 0"/>
<feBlend mode="normal" in2="BackgroundImageFix" result="effect1_dropShadow_1210_258"/>
<feBlend mode="normal" in="SourceGraphic" in2="effect1_dropShadow_1210_258" result="shape"/>
</filter>
<linearGradient id="paint0_linear_1210_258" x1="130.243" y1="237" x2="71.1592" y2="245.146" gradientUnits="userSpaceOnUse">
<stop stop-color="#71BEFA"/>
<stop offset="1" stop-color="#E9EBF8"/>
</linearGradient>
<linearGradient id="paint1_linear_1210_258" x1="330.243" y1="410" x2="271.159" y2="418.146" gradientUnits="userSpaceOnUse">
<stop stop-color="#71BEFA"/>
<stop offset="1" stop-color="#E9EBF8"/>
</linearGradient>
<linearGradient id="paint2_linear_1210_258" x1="432.243" y1="295" x2="373.159" y2="303.146" gradientUnits="userSpaceOnUse">
<stop stop-color="#71BEFA"/>
<stop offset="1" stop-color="#E9EBF8"/>
</linearGradient>
<linearGradient id="paint3_linear_1210_258" x1="186.771" y1="216.704" x2="193.776" y2="231.822" gradientUnits="userSpaceOnUse">
<stop/>
<stop offset="1" stop-color="#ACACAC"/>
</linearGradient>
<linearGradient id="paint4_linear_1210_258" x1="259.165" y1="333.228" x2="261.172" y2="345.357" gradientUnits="userSpaceOnUse">
<stop/>
<stop offset="1" stop-color="#827E7E"/>
</linearGradient>
<linearGradient id="paint5_linear_1210_258" x1="293.845" y1="433.228" x2="296.273" y2="445.197" gradientUnits="userSpaceOnUse">
<stop/>
<stop offset="1" stop-color="#827E7E"/>
</linearGradient>
<linearGradient id="paint6_linear_1210_258" x1="441.771" y1="425.228" x2="445.337" y2="436.568" gradientUnits="userSpaceOnUse">
<stop/>
<stop offset="1" stop-color="#827E7E"/>
</linearGradient>
<linearGradient id="paint7_linear_1210_258" x1="137.845" y1="352.228" x2="140.273" y2="364.197" gradientUnits="userSpaceOnUse">
<stop/>
<stop offset="1" stop-color="#7B7B7B"/>
</linearGradient>
<clipPath id="clip0_1210_258">
<rect width="726" height="495" rx="8" fill="white"/>
</clipPath>
</defs>
</svg>
